<?xml version="1.0" encoding="iso-8859-1"?>
<!-- Generator: Adobe Illustrator 19.0.0, SVG Export Plug-In . SVG Version: 6.00 Build 0)  -->
<svg version="1.1" id="Layer_1" xmlns="http://www.w3.org/2000/svg" xmlns:xlink="http://www.w3.org/1999/xlink" x="0px" y="0px"
	 viewBox="0 0 512 512" style="enable-background:new 0 0 512 512;" xml:space="preserve">
<path style="fill:#73C9C9;" d="M371.868,156.717c-10.424-11.187-22.202-20.627-35.163-28.203
	c12.935,59.198-6.049,121.615-51.065,163.594c-45.008,41.975-108.585,56.558-166.744,39.529
	c6.653,13.452,15.247,25.861,25.679,37.039c28.303,30.36,66.735,47.877,108.223,49.322c41.47,1.527,81.051-13.344,111.407-41.651
	c30.356-28.307,47.873-66.744,49.322-108.227C414.969,226.64,400.179,187.073,371.868,156.717z"/>
<g>
	<path style="fill:#314E55;" d="M384.794,144.662c-16.61-17.814-36.301-31.655-58.529-41.142c-3.219-1.368-6.938-0.721-9.492,1.665
		c-2.563,2.386-3.469,6.053-2.33,9.358c20.14,58.094,4.099,122.719-40.849,164.638c-44.965,41.923-110.553,53.417-167.089,29.269
		c-3.193-1.363-6.938-0.721-9.492,1.665c-2.563,2.386-3.469,6.053-2.33,9.358c7.921,22.84,20.355,43.45,36.966,61.256
		c31.521,33.808,74.329,53.318,120.527,54.931c2.071,0.073,4.133,0.108,6.196,0.108c43.929,0,85.589-16.382,117.878-46.496
		c33.816-31.53,53.318-74.333,54.931-120.536C432.796,222.537,416.324,178.474,384.794,144.662z M364.206,376.346
		c-30.356,28.307-69.937,43.179-111.407,41.651c-41.487-1.445-79.92-18.962-108.223-49.322
		c-10.432-11.179-19.027-23.587-25.679-37.039c58.158,17.029,121.736,2.446,166.744-39.529c45.017-41.979,64-104.396,51.065-163.594
		c12.961,7.576,24.739,17.016,35.163,28.203c28.311,30.356,43.101,69.924,41.66,111.402
		C412.078,309.602,394.562,348.039,364.206,376.346z"/>
	<path style="fill:#314E55;" d="M415.323,405.784c-3.452-3.452-9.043-3.452-12.494,0c-3.451,3.452-3.452,9.043,0,12.494
		l18.742,18.742c1.726,1.726,3.987,2.589,6.247,2.589s4.522-0.863,6.247-2.589c3.452-3.452,3.452-9.043,0-12.494L415.323,405.784z"
		/>
	<path style="fill:#314E55;" d="M421.57,74.98l-18.742,18.746c-3.452,3.452-3.452,9.047,0,12.494
		c1.726,1.726,3.987,2.589,6.247,2.589s4.522-0.863,6.247-2.589l18.742-18.746c3.452-3.452,3.452-9.047,0-12.494
		C430.613,71.529,425.021,71.529,421.57,74.98z"/>
	<path style="fill:#314E55;" d="M256,467.82c-4.884,0-8.836,3.956-8.836,8.836v26.508c0,4.88,3.952,8.836,8.836,8.836
		c4.884,0,8.836-3.956,8.836-8.836v-26.508C264.836,471.777,260.884,467.82,256,467.82z"/>
	<path style="fill:#314E55;" d="M498.988,247.164H472.48c-4.884,0-8.836,3.956-8.836,8.836s3.952,8.836,8.836,8.836h26.508
		c4.884,0,8.836-3.956,8.836-8.836S503.872,247.164,498.988,247.164z"/>
	<path style="fill:#314E55;" d="M96.677,106.221c1.726,1.726,3.987,2.589,6.247,2.589s4.521-0.863,6.247-2.589
		c3.452-3.447,3.452-9.043,0-12.494L90.43,74.98c-3.452-3.452-9.043-3.452-12.494,0c-3.452,3.447-3.452,9.043,0,12.494
		L96.677,106.221z"/>
	<path style="fill:#314E55;" d="M96.677,405.784l-18.742,18.742c-3.452,3.452-3.452,9.043,0,12.494
		c1.726,1.726,3.987,2.589,6.247,2.589c2.261,0,4.522-0.863,6.247-2.589l18.742-18.742c3.452-3.452,3.452-9.043,0-12.494
		C105.72,402.332,100.129,402.332,96.677,405.784z"/>
	<path style="fill:#314E55;" d="M256,44.18c4.884,0,8.836-3.956,8.836-8.836V8.836C264.836,3.956,260.884,0,256,0
		c-4.884,0-8.836,3.956-8.836,8.836v26.508C247.164,40.223,251.116,44.18,256,44.18z"/>
	<path style="fill:#314E55;" d="M39.52,247.164H13.012c-4.884,0-8.836,3.956-8.836,8.836s3.952,8.836,8.836,8.836H39.52
		c4.884,0,8.836-3.956,8.836-8.836S44.404,247.164,39.52,247.164z"/>
</g>
<g>
</g>
<g>
</g>
<g>
</g>
<g>
</g>
<g>
</g>
<g>
</g>
<g>
</g>
<g>
</g>
<g>
</g>
<g>
</g>
<g>
</g>
<g>
</g>
<g>
</g>
<g>
</g>
<g>
</g>
</svg>
