<?xml version="1.0" encoding="iso-8859-1"?>
<!-- Generator: Adobe Illustrator 19.0.0, SVG Export Plug-In . SVG Version: 6.00 Build 0)  -->
<svg version="1.1" id="Layer_1" xmlns="http://www.w3.org/2000/svg" xmlns:xlink="http://www.w3.org/1999/xlink" x="0px" y="0px"
	 viewBox="0 0 512 512" style="enable-background:new 0 0 512 512;" xml:space="preserve">
<path style="fill:#F28544;" d="M256,141.056c-63.28,0-114.759,51.479-114.759,114.759S192.72,370.573,256,370.573
	s114.759-51.479,114.759-114.759S319.28,141.056,256,141.056z"/>
<g>
	<path style="fill:#314E55;" d="M365.66,154.784c2.259,0,4.517-0.862,6.241-2.586l45.185-45.181c3.448-3.448,3.448-9.035,0-12.483
		c-3.448-3.448-9.035-3.448-12.483,0l-45.185,45.181c-3.448,3.448-3.448,9.035,0,12.483
		C361.142,153.922,363.401,154.784,365.66,154.784z"/>
	<path style="fill:#314E55;" d="M137.259,152.198c1.724,1.724,3.983,2.586,6.241,2.586c2.259,0,4.517-0.862,6.241-2.586
		c3.448-3.448,3.448-9.035,0-12.483l-45.185-45.181c-3.448-3.448-9.035-3.448-12.483,0c-3.448,3.448-3.448,9.035,0,12.483
		L137.259,152.198z"/>
	<path style="fill:#314E55;" d="M137.259,361.879l-45.185,45.185c-3.448,3.448-3.448,9.035,0,12.483
		c1.724,1.724,3.983,2.586,6.241,2.586s4.517-0.862,6.241-2.586l45.185-45.185c3.448-3.448,3.448-9.035,0-12.483
		C146.293,358.431,140.707,358.431,137.259,361.879z"/>
	<path style="fill:#314E55;" d="M371.901,361.879c-3.448-3.448-9.035-3.448-12.483,0c-3.448,3.448-3.448,9.035,0,12.483
		l45.185,45.185c1.724,1.724,3.983,2.586,6.241,2.586c2.259,0,4.517-0.862,6.241-2.586c3.448-3.448,3.448-9.035,0-12.483
		L371.901,361.879z"/>
	<path style="fill:#314E55;" d="M256,123.401c-73.013,0-132.414,59.401-132.414,132.414S182.987,388.228,256,388.228
		s132.414-59.401,132.414-132.414S329.013,123.401,256,123.401z M256,370.573c-63.28,0-114.759-51.479-114.759-114.759
		S192.72,141.056,256,141.056s114.759,51.479,114.759,114.759S319.28,370.573,256,370.573z"/>
	<path style="fill:#314E55;" d="M503.172,247.172h-92.504c-4.875,0-8.828,3.953-8.828,8.828s3.953,8.828,8.828,8.828h92.504
		c4.875,0,8.828-3.953,8.828-8.828S508.047,247.172,503.172,247.172z"/>
	<path style="fill:#314E55;" d="M110.159,256c0-4.875-3.953-8.828-8.828-8.828H8.828C3.953,247.172,0,251.125,0,256
		s3.953,8.828,8.828,8.828h92.504C106.207,264.828,110.159,260.875,110.159,256z"/>
	<path style="fill:#314E55;" d="M256,401.841c-4.875,0-8.828,3.953-8.828,8.828v92.504c0,4.875,3.953,8.828,8.828,8.828
		s8.828-3.953,8.828-8.828v-92.504C264.828,405.793,260.875,401.841,256,401.841z"/>
	<path style="fill:#314E55;" d="M256,110.159c4.875,0,8.828-3.953,8.828-8.828V8.828C264.828,3.953,260.875,0,256,0
		s-8.828,3.953-8.828,8.828v92.504C247.172,106.207,251.125,110.159,256,110.159z"/>
</g>
<g>
</g>
<g>
</g>
<g>
</g>
<g>
</g>
<g>
</g>
<g>
</g>
<g>
</g>
<g>
</g>
<g>
</g>
<g>
</g>
<g>
</g>
<g>
</g>
<g>
</g>
<g>
</g>
<g>
</g>
</svg>
