<?xml version="1.0" encoding="iso-8859-1"?>
<!-- Generator: Adobe Illustrator 19.0.0, SVG Export Plug-In . SVG Version: 6.00 Build 0)  -->
<svg version="1.1" id="Layer_1" xmlns="http://www.w3.org/2000/svg" xmlns:xlink="http://www.w3.org/1999/xlink" x="0px" y="0px"
	 viewBox="0 0 512 512" style="enable-background:new 0 0 512 512;" xml:space="preserve">
<g>
	<path style="fill:#D8D8D8;" d="M209.745,349.041c-14.591-8.436-32.036-9.827-47.818-3.836c-2.982,1.136-6.336,0.664-8.909-1.264
		c-2.554-1.918-3.936-5.018-3.682-8.2c1.036-12.518-5.318-24.655-16.182-30.918c-7.527-4.345-16.309-5.5-24.727-3.264
		c-8.4,2.255-15.427,7.646-19.782,15.182c-8.064,13.982-4.827,31.482,7.7,41.6c2.482,2.018,3.764,5.164,3.391,8.345
		c-0.382,3.182-2.364,5.936-5.255,7.309c-5.982,2.836-10.9,7.382-14.227,13.145c-4.355,7.536-5.509,16.318-3.254,24.718
		c2.255,8.409,7.646,15.436,15.182,19.782c10.645,6.164,23.709,5.818,34.036-0.882c1.564-1,3.318-1.491,5.055-1.491
		c2.718,0,5.4,1.182,7.227,3.427c4.282,5.255,9.455,9.654,15.391,13.082c12.927,7.464,27.982,9.445,42.382,5.582
		c14.409-3.864,26.455-13.109,33.909-26.027c7.464-12.918,9.445-27.973,5.582-42.382
		C231.909,368.541,222.664,356.495,209.745,349.041z"/>
	<path style="fill:#D8D8D8;" d="M260.655,68.014c-13.127,0-25.782,3.891-36.6,11.245c-3.355,2.264-7.8,2.127-10.982-0.373
		c-9.073-7.109-19.981-10.873-31.545-10.873c-13.091,0-25.536,4.936-35.055,13.891c-1.846,1.736-4.291,2.718-6.855,2.518
		c-2.527-0.127-4.9-1.291-6.564-3.2c-12.4-14.309-30.364-22.518-49.273-22.518c-35.927,0-65.164,29.236-65.164,65.164
		s29.236,65.164,65.164,65.164c2.8,0,5.573-0.173,8.282-0.518c0.382-0.045,0.773-0.073,1.164-0.073c2.146,0,4.245,0.745,5.918,2.127
		c1.982,1.627,3.2,4.009,3.373,6.564c1.773,26.782,24.209,47.754,51.082,47.754c28.227,0,51.2-22.973,51.2-51.2l-0.036-2.091
		c-0.127-3.636,1.882-7.018,5.136-8.645c3.254-1.609,7.164-1.209,9.991,1.073c11.664,9.364,25.764,14.318,40.764,14.318
		c35.927,0,65.164-29.236,65.164-65.164S296.582,68.014,260.655,68.014z"/>
	<path style="fill:#D8D8D8;" d="M437.527,179.723c-23.182,0-43.6,13.945-52.036,35.518c-1.855,4.755-7.191,7.127-11.964,5.318
		c-6.318-2.391-12.982-3.6-19.782-3.6c-30.8,0-55.855,25.055-55.855,55.855s25.054,55.855,55.855,55.855
		c23.173,0,43.6-13.945,52.036-35.518c1.864-4.746,7.209-7.127,11.964-5.318c6.318,2.391,12.982,3.6,19.782,3.6
		c30.8,0,55.855-25.054,55.855-55.855S468.327,179.723,437.527,179.723z"/>
</g>
<g>
	<path style="fill:#314E55;" d="M344.436,133.177c0-46.2-37.582-83.782-83.782-83.782c-14.673,0-28.891,3.782-41.5,10.991
		c-23.427-15.064-55.718-14.173-78.346,2.1c-15.427-14.327-35.755-22.4-57.027-22.4C37.582,40.086,0,77.668,0,123.868
		s37.582,83.782,83.782,83.782c0.464,0,0.936,0,1.4-0.009c6.509,31.982,34.945,55.864,68.418,55.864
		c33.764,0,62-24.091,68.436-55.982c11.864,6.145,25.136,9.436,38.618,9.436C306.855,216.959,344.436,179.377,344.436,133.177z
		 M260.655,198.341c-15,0-29.1-4.955-40.764-14.318c-2.827-2.282-6.736-2.682-9.991-1.073c-3.254,1.627-5.264,5.009-5.136,8.645
		l0.036,2.091c0,28.227-22.973,51.2-51.2,51.2c-26.873,0-49.309-20.973-51.082-47.754c-0.173-2.555-1.391-4.936-3.373-6.564
		c-1.673-1.382-3.773-2.127-5.918-2.127c-0.391,0-0.782,0.027-1.164,0.073c-2.709,0.346-5.482,0.518-8.282,0.518
		c-35.927,0-65.164-29.236-65.164-65.164s29.236-65.164,65.164-65.164c18.909,0,36.873,8.209,49.273,22.518
		c1.664,1.909,4.036,3.073,6.564,3.2c2.564,0.2,5.009-0.782,6.855-2.518c9.518-8.955,21.964-13.891,35.055-13.891
		c11.564,0,22.473,3.764,31.545,10.873c3.182,2.5,7.627,2.636,10.982,0.373c10.818-7.355,23.473-11.246,36.6-11.246
		c35.927,0,65.164,29.236,65.164,65.164S296.582,198.341,260.655,198.341z"/>
	<path style="fill:#314E55;" d="M437.527,161.105c-27.964,0-52.927,15.218-65.746,39.436c-5.882-1.464-11.909-2.2-18.036-2.2
		c-41.064,0-74.473,33.409-74.473,74.473s33.409,74.473,74.473,74.473c27.954,0,52.909-15.227,65.745-39.436
		c5.873,1.464,11.909,2.2,18.037,2.2c41.064,0,74.473-33.409,74.473-74.473S478.591,161.105,437.527,161.105z M437.527,291.432
		c-6.8,0-13.464-1.209-19.782-3.6c-4.755-1.809-10.1,0.573-11.964,5.318c-8.436,21.573-28.864,35.518-52.036,35.518
		c-30.8,0-55.855-25.055-55.855-55.855s25.054-55.855,55.855-55.855c6.8,0,13.464,1.209,19.782,3.6
		c4.773,1.809,10.109-0.564,11.964-5.318c8.436-21.573,28.855-35.518,52.036-35.518c30.8,0,55.855,25.054,55.855,55.855
		S468.327,291.432,437.527,291.432z"/>
	<path style="fill:#314E55;" d="M219.055,332.914c-15.827-9.136-34.155-12.082-51.745-8.564
		c-2.582-14.754-11.564-27.991-24.846-35.655c-11.845-6.836-25.645-8.664-38.855-5.118c-13.209,3.536-24.246,12.009-31.091,23.855
		c-10.536,18.273-8.791,40.364,3.418,56.436c-4.709,3.873-8.7,8.582-11.809,13.964c-6.836,11.845-8.655,25.636-5.109,38.855
		c3.536,13.209,12.009,24.246,23.855,31.082c14.4,8.327,31.582,9.082,46.409,2.455c4.554,4.518,9.673,8.436,15.3,11.682
		c11.473,6.627,24.209,10.009,37.109,10.009c6.473,0,12.982-0.855,19.4-2.573c19.218-5.145,35.273-17.473,45.218-34.7
		c9.946-17.227,12.591-37.291,7.445-56.509C248.6,358.923,236.282,342.859,219.055,332.914z M230.182,425.332
		c-7.454,12.918-19.5,22.164-33.909,26.027c-14.4,3.864-29.454,1.882-42.382-5.582c-5.936-3.427-11.109-7.827-15.391-13.082
		c-1.827-2.245-4.509-3.427-7.227-3.427c-1.736,0-3.491,0.491-5.055,1.491c-10.327,6.7-23.391,7.045-34.036,0.882
		c-7.536-4.345-12.927-11.373-15.182-19.782c-2.255-8.4-1.1-17.182,3.254-24.718c3.327-5.764,8.246-10.309,14.227-13.145
		c2.891-1.373,4.873-4.127,5.255-7.309c0.373-3.182-0.909-6.327-3.391-8.345c-12.527-10.118-15.764-27.618-7.7-41.6
		c4.355-7.536,11.382-12.927,19.782-15.182c8.418-2.236,17.2-1.082,24.727,3.264c10.864,6.264,17.218,18.4,16.182,30.918
		c-0.255,3.182,1.127,6.282,3.682,8.2c2.573,1.927,5.927,2.4,8.909,1.264c15.782-5.991,33.227-4.6,47.818,3.836
		c12.918,7.454,22.164,19.5,26.018,33.909C239.627,397.359,237.645,412.414,230.182,425.332z"/>
</g>
<g>
</g>
<g>
</g>
<g>
</g>
<g>
</g>
<g>
</g>
<g>
</g>
<g>
</g>
<g>
</g>
<g>
</g>
<g>
</g>
<g>
</g>
<g>
</g>
<g>
</g>
<g>
</g>
<g>
</g>
</svg>
