<?xml version="1.0" encoding="iso-8859-1"?>
<!-- Generator: Adobe Illustrator 19.0.0, SVG Export Plug-In . SVG Version: 6.00 Build 0)  -->
<svg version="1.1" id="Layer_1" xmlns="http://www.w3.org/2000/svg" xmlns:xlink="http://www.w3.org/1999/xlink" x="0px" y="0px"
	 viewBox="0 0 512 512" style="enable-background:new 0 0 512 512;" xml:space="preserve">
<path style="fill:#F28544;" d="M81.998,125.585c29.297,0,53.132-23.835,53.132-53.132s-23.835-53.132-53.132-53.132
	S28.866,43.156,28.866,72.453S52.7,125.585,81.998,125.585z"/>
<path style="fill:#73C9C9;" d="M96.488,236.679c0,34.623,26,62.792,57.962,62.792h210.854c0.344-0.057,0.693-0.104,1.042-0.123
	c38.274-2.34,68.255-36.226,68.255-77.16c0-41.887-31.929-76.547-71.179-77.269c-4.245-0.08-7.939-2.92-9.109-7
	c-10.217-35.703-44.736-60.637-83.939-60.637c-47.939,0-86.943,36.835-86.943,82.113c0,2.387,0.108,4.745,0.321,7.076
	c0.288,3.236-1.061,6.396-3.599,8.42c-2.538,2.028-5.92,2.642-9.01,1.637c-5.391-1.755-11.005-2.641-16.693-2.641
	C122.488,173.887,96.488,202.057,96.488,236.679z"/>
<g>
	<path style="fill:#314E55;" d="M81.998,144.906c39.953,0,72.453-32.5,72.453-72.453S121.951,0,81.998,0S9.545,32.5,9.545,72.453
		S42.045,144.906,81.998,144.906z M81.998,19.321c29.297,0,53.132,23.835,53.132,53.132s-23.835,53.132-53.132,53.132
		S28.866,101.75,28.866,72.453S52.7,19.321,81.998,19.321z"/>
	<path style="fill:#314E55;" d="M77.167,236.679c0,45.274,34.67,82.113,77.283,82.113h212.528c0.797,0,1.58-0.094,2.34-0.283
		c47.585-3.887,84.604-45.83,84.604-96.321c0-49.877-36.717-91.566-83.175-96.179c-14.731-40.396-55.019-68.047-100.373-68.047
		c-57.127,0-103.873,43.25-106.175,97.25c-3.222-0.429-6.476-0.646-9.75-0.646C111.837,154.566,77.167,191.401,77.167,236.679z
		 M171.144,176.528c3.09,1.005,6.472,0.391,9.01-1.637c2.538-2.024,3.887-5.184,3.599-8.42c-0.212-2.331-0.321-4.689-0.321-7.076
		c0-45.278,39.005-82.113,86.943-82.113c39.203,0,73.722,24.934,83.939,60.637c1.17,4.08,4.863,6.92,9.109,7
		c39.25,0.722,71.179,35.382,71.179,77.269c0,40.934-29.981,74.821-68.255,77.16c-0.349,0.019-0.698,0.066-1.042,0.123H154.45
		c-31.962,0-57.962-28.17-57.962-62.792s26-62.792,57.962-62.792C160.139,173.887,165.752,174.774,171.144,176.528z"/>
	<path style="fill:#314E55;" d="M241.625,492.679H38.526c-5.335,0-9.66,4.321-9.66,9.66s4.325,9.66,9.66,9.66h203.099
		c5.335,0,9.66-4.321,9.66-9.66S246.96,492.679,241.625,492.679z"/>
	<path style="fill:#314E55;" d="M492.795,492.679H289.696c-5.335,0-9.66,4.321-9.66,9.66s4.325,9.66,9.66,9.66h203.099
		c5.335,0,9.66-4.321,9.66-9.66S498.13,492.679,492.795,492.679z"/>
	<path style="fill:#314E55;" d="M38.526,415.396h280.316c5.335,0,9.66-4.321,9.66-9.66c0-5.34-4.325-9.66-9.66-9.66H38.526
		c-5.335,0-9.66,4.321-9.66,9.66C28.866,411.075,33.191,415.396,38.526,415.396z"/>
	<path style="fill:#314E55;" d="M366.979,396.075c-5.335,0-9.66,4.321-9.66,9.66c0,5.34,4.325,9.66,9.66,9.66h125.75
		c5.335,0,9.66-4.321,9.66-9.66c0-5.34-4.325-9.66-9.66-9.66H366.979z"/>
	<path style="fill:#314E55;" d="M38.526,463.698h449.307c5.335,0,9.66-4.321,9.66-9.66c0-5.34-4.326-9.66-9.66-9.66H38.526
		c-5.335,0-9.66,4.321-9.66,9.66C28.866,459.377,33.191,463.698,38.526,463.698z"/>
	<path style="fill:#314E55;" d="M28.866,357.434c0,5.34,4.325,9.66,9.66,9.66h449.307c5.335,0,9.66-4.321,9.66-9.66
		c0-5.34-4.326-9.66-9.66-9.66H38.526C33.191,347.774,28.866,352.094,28.866,357.434z"/>
</g>
<g>
</g>
<g>
</g>
<g>
</g>
<g>
</g>
<g>
</g>
<g>
</g>
<g>
</g>
<g>
</g>
<g>
</g>
<g>
</g>
<g>
</g>
<g>
</g>
<g>
</g>
<g>
</g>
<g>
</g>
</svg>
