<?xml version="1.0" encoding="iso-8859-1"?>
<!-- Generator: Adobe Illustrator 19.0.0, SVG Export Plug-In . SVG Version: 6.00 Build 0)  -->
<svg version="1.1" id="Layer_1" xmlns="http://www.w3.org/2000/svg" xmlns:xlink="http://www.w3.org/1999/xlink" x="0px" y="0px"
	 viewBox="0 0 512 512" style="enable-background:new 0 0 512 512;" xml:space="preserve">
<path style="fill:#F28544;" d="M451.299,288.114c25.629-24.374,40.447-57.172,41.686-92.579
	c1.254-35.858-11.531-70.061-36.006-96.302c-8.084-8.669-17.097-16.121-26.947-22.291c9.775,51.25-7.192,104.711-46.07,140.964
	c-1.452,1.357-2.965,2.609-4.455,3.896c5.565,12.94,9.202,26.84,10.263,41.445C413.301,264.274,434.72,273.508,451.299,288.114z"/>
<path style="fill:#81A4E3;" d="M385.356,282.178c-1.44,0-2.862,0.037-4.284,0.107c-2.592,0.204-5.148-0.808-7.034-2.606
	c-1.886-1.798-2.955-4.288-2.955-6.895c0-63.078-53.354-114.3-118.937-114.3c-52.091,0-97.668,32.001-113.399,79.627
	c-1.394,4.237-5.603,6.964-9.961,6.486c-3.243-0.316-6.532-0.479-9.849-0.479c-55.092,0-99.907,44.82-99.907,99.907
	s44.815,99.907,99.907,99.907c1.468,0,2.918-0.028,4.367-0.093c0.613-0.023,1.226,0,1.812,0.093h263.473
	c0.334-0.056,0.669-0.093,1.004-0.107c42.976-2.221,76.64-37.698,76.64-80.77C466.233,318.458,429.948,282.178,385.356,282.178z
	 M118.937,424.902c-44.592,0-80.877-36.281-80.877-80.877c0-5.255,4.256-9.515,9.515-9.515s9.515,4.26,9.515,9.515
	c0,34.101,27.746,61.847,61.847,61.847c5.259,0,9.515,4.26,9.515,9.515S124.196,424.902,118.937,424.902z"/>
<g>
	<path style="fill:#314E55;" d="M470.898,86.252c-14.718-15.782-32.169-28.048-51.868-36.457c-3.466-1.463-7.471-0.771-10.221,1.793
		c-2.76,2.569-3.735,6.518-2.509,10.077c17.413,50.218,3.55,106.082-35.31,142.32c-0.146,0.136-0.301,0.255-0.448,0.392
		c-24.128-38.853-68.161-64.924-118.396-64.924c-57.749,0-108.642,34.148-128.944,85.709c-1.412-0.051-2.834-0.074-4.265-0.074
		C53.354,225.088,0,278.442,0,344.025s53.354,118.937,118.937,118.937c1.245,0,2.49-0.019,3.726-0.056
		c0.344,0.037,0.688,0.056,1.031,0.056h266.419c0.688,0,1.366-0.079,2.016-0.228c52.351-3.508,93.133-46.994,93.133-99.679
		c0-22.992-7.848-44.162-20.951-61.064C525.152,244.198,528.247,147.748,470.898,86.252z M383.962,217.905
		c38.878-36.253,55.845-89.714,46.07-140.964c9.849,6.17,18.863,13.622,26.947,22.291c24.475,26.241,37.261,60.444,36.006,96.302
		c-1.239,35.407-16.056,68.205-41.686,92.579c-16.579-14.606-37.998-23.84-61.53-24.869c-1.061-14.605-4.698-28.504-10.263-41.445
		C380.997,220.514,382.51,219.262,383.962,217.905z M389.593,443.825c-0.334,0.014-0.669,0.051-1.004,0.107H125.116
		c-0.585-0.093-1.199-0.116-1.812-0.093c-1.45,0.065-2.899,0.093-4.367,0.093c-55.092,0-99.907-44.82-99.907-99.907
		s44.815-99.907,99.907-99.907c3.317,0,6.606,0.163,9.849,0.479c4.358,0.479,8.567-2.249,9.961-6.486
		c15.731-47.626,61.308-79.627,113.399-79.627c65.583,0,118.937,51.222,118.937,114.3c0,2.606,1.069,5.097,2.955,6.895
		c1.886,1.798,4.442,2.811,7.034,2.606c1.422-0.07,2.843-0.107,4.284-0.107c44.592,0,80.877,36.281,80.877,80.877
		C466.233,406.128,432.569,441.604,389.593,443.825z"/>
	<path style="fill:#314E55;" d="M118.937,405.872c-34.101,0-61.847-27.746-61.847-61.847c0-5.255-4.256-9.515-9.515-9.515
		s-9.515,4.26-9.515,9.515c0,44.597,36.285,80.877,80.877,80.877c5.259,0,9.515-4.26,9.515-9.515S124.196,405.872,118.937,405.872z"
		/>
</g>
<g>
</g>
<g>
</g>
<g>
</g>
<g>
</g>
<g>
</g>
<g>
</g>
<g>
</g>
<g>
</g>
<g>
</g>
<g>
</g>
<g>
</g>
<g>
</g>
<g>
</g>
<g>
</g>
<g>
</g>
</svg>
