<?xml version="1.0" encoding="iso-8859-1"?>
<!-- Generator: Adobe Illustrator 19.0.0, SVG Export Plug-In . SVG Version: 6.00 Build 0)  -->
<svg version="1.1" id="Layer_1" xmlns="http://www.w3.org/2000/svg" xmlns:xlink="http://www.w3.org/1999/xlink" x="0px" y="0px"
	 viewBox="0 0 512 512" style="enable-background:new 0 0 512 512;" xml:space="preserve">
<path style="fill:#E4AD40;" d="M166.175,220.069c1.351,0,2.693,0.022,4.031,0.07c13.994-35.548,43.424-62.259,79.499-74.119
	c-9.734-56.09-57.728-96.618-114.969-96.618c-64.39,0-116.772,52.382-116.772,116.772c0,41.427,21.881,79.463,57.355,100.469
	C95.742,238.486,128.81,220.069,166.175,220.069z"/>
<path style="fill:#73C9C9;" d="M251.417,373.894c-0.798,0-1.592,0.022-2.381,0.061c-2.408,0.14-4.86-0.763-6.649-2.456
	c-1.785-1.697-2.794-4.053-2.794-6.513c0-35.364-30.386-64.075-67.732-64.075c-29.702,0-55.667,17.965-64.605,44.702
	c-1.329,3.974-5.224,6.531-9.386,6.092c-1.833-0.175-3.693-0.267-5.57-0.267c-31.084,0-56.369,24.934-56.369,55.579
	s25.285,55.579,56.369,55.579c0.833,0,1.662-0.017,2.487-0.053c0.482-0.013,0.956,0,1.421,0.053h156.917
	c0.215-0.026,0.434-0.048,0.658-0.057c23.912-1.219,42.64-20.675,42.64-44.294C296.421,393.788,276.233,373.894,251.417,373.894z"/>
<path style="fill:#81A4E3;" d="M417.684,273.964l-1.43,0.009c-1.118,0.009-2.206,0.022-3.298-0.013
	c-4.868-0.127-8.746-4.109-8.746-8.978c0-59.434-50.368-107.789-112.281-107.789c-49.18,0-92.197,30.21-107.048,75.171
	c-1.32,3.996-5.254,6.583-9.408,6.123c-3.057-0.298-6.162-0.452-9.298-0.452c-52.004,0-94.316,42.311-94.316,94.316
	c0.002,0.466,0.089,1.946,0.241,3.955c6.433-1.801,13.19-2.832,20.198-2.832c0.127,0,0.254,0,0.386,0
	c13.171-30.487,44.149-50.526,79.175-50.526c44.171,0,80.645,32.127,85.215,73.232c32.079,2.842,57.311,29.592,57.311,62.066
	c0,2.855-0.261,5.648-0.637,8.405l108.387-0.098c40.119-2.079,71.899-35.57,71.899-76.237
	C494.035,308.214,459.785,273.964,417.684,273.964z"/>
<path style="fill:#314E55;" d="M421.855,256.091c-4.741-65.21-61.202-116.864-129.925-116.864c-8.466,0-16.746,0.864-24.815,2.36
	C255.343,77.562,200.314,31.437,134.737,31.437C60.443,31.437,0,91.88,0,166.174c0,47.722,25.163,91.54,65.969,115.803
	c-7.658,15.171-12.075,32.249-12.075,50.373c0,1.882,0.393,6.914,0.815,11.328c-21.945,12.799-36.745,36.363-36.745,63.339
	c0,41.25,34.934,74.75,76.443,73.513c0.241,0.022,0.487,0.031,0.733,0.031h159.118c0.557,0,1.105-0.053,1.64-0.154
	c23.441-1.632,43.116-15.883,52.522-35.788l114.184-0.115C472.733,441.924,512,400.551,512,350.315
	C512,299.705,471.934,258.279,421.855,256.091z M17.965,166.174c0-64.39,52.382-116.772,116.772-116.772
	c57.241,0,105.235,40.529,114.969,96.618c-36.076,11.86-65.505,38.57-79.499,74.119c-1.338-0.048-2.68-0.07-4.031-0.07
	c-37.365,0-70.434,18.417-90.855,46.574C39.846,245.637,17.965,207.601,17.965,166.174z M253.781,462.538
	c-0.224,0.009-0.443,0.031-0.658,0.057H96.206c-0.465-0.053-0.939-0.066-1.421-0.053c-0.824,0.035-1.653,0.053-2.487,0.053
	c-31.083,0-56.369-24.934-56.369-55.579s25.285-55.579,56.369-55.579c1.877,0,3.737,0.092,5.57,0.267
	c4.162,0.439,8.057-2.119,9.386-6.092c8.938-26.737,34.903-44.702,64.605-44.702c37.347,0,67.732,28.711,67.732,64.075
	c0,2.461,1.009,4.816,2.794,6.513c1.79,1.693,4.241,2.596,6.649,2.456c0.79-0.04,1.583-0.061,2.381-0.061
	c24.816,0,45.004,19.895,45.004,44.351C296.421,441.863,277.693,461.319,253.781,462.538z M422.136,426.551l-108.387,0.098
	c0.376-2.756,0.637-5.549,0.637-8.405c0-32.474-25.232-59.224-57.311-62.066c-4.57-41.105-41.044-73.232-85.215-73.232
	c-35.026,0-66.004,20.039-79.175,50.526c-0.132,0-0.259,0-0.386,0c-7.008,0-13.765,1.031-20.198,2.832
	c-0.151-2.009-0.238-3.489-0.24-3.955c0-52.004,42.311-94.316,94.316-94.316c3.136,0,6.241,0.154,9.298,0.452
	c4.153,0.461,8.088-2.127,9.408-6.123c14.851-44.961,57.868-75.171,107.048-75.171c61.912,0,112.281,48.355,112.281,107.789
	c0,4.868,3.877,8.851,8.746,8.978c1.092,0.035,2.18,0.022,3.298,0.013l1.43-0.009c42.101,0,76.351,34.25,76.351,76.351
	C494.035,390.981,462.254,424.472,422.136,426.551z"/>
<g>
</g>
<g>
</g>
<g>
</g>
<g>
</g>
<g>
</g>
<g>
</g>
<g>
</g>
<g>
</g>
<g>
</g>
<g>
</g>
<g>
</g>
<g>
</g>
<g>
</g>
<g>
</g>
<g>
</g>
</svg>
