<?xml version="1.0" encoding="iso-8859-1"?>
<!-- Generator: Adobe Illustrator 19.0.0, SVG Export Plug-In . SVG Version: 6.00 Build 0)  -->
<svg version="1.1" id="Layer_1" xmlns="http://www.w3.org/2000/svg" xmlns:xlink="http://www.w3.org/1999/xlink" x="0px" y="0px"
	 viewBox="0 0 512 512" style="enable-background:new 0 0 512 512;" xml:space="preserve">
<g>
	<path style="fill:#81A4E3;" d="M414.255,162.218l-1.482,0.009c-1.155,0-2.291,0.009-3.418-0.014
		c-5.045-0.132-9.064-4.259-9.064-9.304c0-61.595-52.2-111.709-116.364-111.709c-50.968,0-95.55,31.309-110.941,77.905
		c-1.368,4.136-5.45,6.809-9.75,6.346c-3.168-0.309-6.386-0.468-9.636-0.468c-53.895,0-97.745,43.85-97.745,97.745
		c0.002,0.483,0.093,2.017,0.249,4.099c6.666-1.867,13.67-2.935,20.932-2.935c0.132,0,0.264,0,0.4,0
		c13.65-31.596,45.754-52.364,82.054-52.364c45.777,0,83.577,33.295,88.314,75.895c33.246,2.946,59.395,30.668,59.395,64.323
		c0,2.96-0.27,5.853-0.66,8.71l112.328-0.101c41.577-2.146,74.514-36.864,74.514-79.009
		C493.382,197.714,457.886,162.218,414.255,162.218z"/>
	<path style="fill:#81A4E3;" d="M239.427,265.845c-2.573,0.145-5.018-0.809-6.859-2.564c-1.841-1.764-2.882-4.191-2.882-6.736
		c0-36.645-31.491-66.4-70.195-66.4c-30.782,0-57.691,18.618-66.954,46.327c-1.377,4.114-5.409,6.741-9.727,6.314
		c-1.9-0.182-3.827-0.277-5.773-0.277c-32.214,0-58.418,25.836-58.418,57.6c0,31.763,26.205,57.6,58.418,57.6
		c0.85,0,1.695-0.018,2.532-0.054c0.527-0.036,1.018-0.009,1.518,0.054h162.623c0.223-0.027,0.455-0.045,0.682-0.064
		c24.782-1.255,44.191-21.418,44.191-45.9C288.582,285.573,265.873,264.664,239.427,265.845z"/>
</g>
<g>
	<path style="fill:#314E55;" d="M175.868,399.236c-4.473-2.573-10.146-1.036-12.718,3.409l-42.041,72.809
		c-2.568,4.455-1.045,10.146,3.409,12.718c1.468,0.845,3.068,1.246,4.645,1.246c3.218,0,6.346-1.664,8.073-4.655l42.041-72.809
		C181.845,407.5,180.323,401.809,175.868,399.236z"/>
	<path style="fill:#314E55;" d="M231.723,399.236c-4.468-2.573-10.146-1.036-12.718,3.409l-42.041,72.809
		c-2.568,4.455-1.045,10.146,3.409,12.718c1.468,0.845,3.068,1.246,4.645,1.246c3.218,0,6.346-1.664,8.073-4.655l42.041-72.809
		C237.7,407.5,236.177,401.809,231.723,399.236z"/>
	<path style="fill:#314E55;" d="M287.577,399.236c-4.477-2.573-10.15-1.036-12.718,3.409l-42.041,72.809
		c-2.568,4.455-1.045,10.146,3.409,12.718c1.468,0.845,3.068,1.246,4.645,1.246c3.218,0,6.346-1.664,8.073-4.655l42.041-72.809
		C293.555,407.5,292.032,401.809,287.577,399.236z"/>
	<path style="fill:#314E55;" d="M343.432,399.236c-4.473-2.573-10.15-1.036-12.718,3.409l-42.041,72.809
		c-2.568,4.455-1.045,10.146,3.409,12.718c1.468,0.845,3.068,1.246,4.645,1.246c3.218,0,6.346-1.664,8.073-4.655l42.041-72.809
		C349.409,407.5,347.886,401.809,343.432,399.236z"/>
	<path style="fill:#314E55;" d="M399.286,399.236c-4.468-2.573-10.15-1.036-12.718,3.409l-42.041,72.809
		c-2.568,4.455-1.045,10.146,3.409,12.718c1.468,0.845,3.068,1.246,4.645,1.246c3.218,0,6.346-1.664,8.073-4.655l42.041-72.809
		C405.264,407.5,403.741,401.809,399.286,399.236z"/>
	<path style="fill:#314E55;" d="M418.577,143.695c-4.914-67.582-63.427-121.114-134.65-121.114
		c-56.505,0-106.291,33.409-126.15,83.854c-1.386-0.05-2.777-0.073-4.177-0.073c-64.164,0-116.364,52.2-116.364,116.364
		c0,1.95,0.407,7.166,0.844,11.74C15.337,247.731,0,272.152,0,300.109c0,42.754,36.182,77.363,79.241,76.191
		c0.246,0.018,0.491,0.027,0.741,0.027h164.904c0.573,0,1.141-0.054,1.695-0.164c24.298-1.685,44.69-16.453,54.437-37.085
		l118.335-0.115c51.95-2.673,92.645-45.554,92.645-97.618C512,188.895,470.477,145.964,418.577,143.695z M244.391,357.646
		c-0.227,0.018-0.459,0.036-0.682,0.064H81.086c-0.5-0.064-0.991-0.091-1.518-0.054c-0.836,0.036-1.682,0.054-2.532,0.054
		c-32.214,0-58.418-25.836-58.418-57.6c0-31.764,26.205-57.6,58.418-57.6c1.945,0,3.873,0.095,5.773,0.277
		c4.318,0.427,8.35-2.2,9.727-6.314c9.263-27.709,36.173-46.327,66.954-46.327c38.705,0,70.195,29.755,70.195,66.4
		c0,2.546,1.041,4.973,2.882,6.736c1.841,1.755,4.286,2.709,6.859,2.564c26.446-1.182,49.155,19.727,49.155,45.9
		C288.582,336.227,269.173,356.391,244.391,357.646z M418.868,320.354l-112.328,0.101c0.39-2.857,0.66-5.75,0.66-8.71
		c0-33.655-26.15-61.377-59.395-64.323c-4.736-42.6-42.536-75.896-88.314-75.896c-36.3,0-68.405,20.768-82.055,52.364
		c-0.136,0-0.268,0-0.4,0c-7.262,0-14.266,1.068-20.932,2.935c-0.157-2.082-0.247-3.616-0.249-4.099
		c0-53.895,43.85-97.745,97.745-97.745c3.25,0,6.468,0.159,9.636,0.468c4.3,0.464,8.382-2.209,9.75-6.346
		C188.377,72.509,232.959,41.2,283.927,41.2c64.164,0,116.364,50.114,116.364,111.709c0,5.046,4.018,9.173,9.064,9.304
		c1.127,0.023,2.264,0.014,3.418,0.014l1.482-0.009c43.632,0,79.127,35.496,79.127,79.127
		C493.382,283.491,460.446,318.209,418.868,320.354z"/>
</g>
<g>
</g>
<g>
</g>
<g>
</g>
<g>
</g>
<g>
</g>
<g>
</g>
<g>
</g>
<g>
</g>
<g>
</g>
<g>
</g>
<g>
</g>
<g>
</g>
<g>
</g>
<g>
</g>
<g>
</g>
</svg>
