<?xml version="1.0" encoding="iso-8859-1"?>
<!-- Generator: Adobe Illustrator 19.0.0, SVG Export Plug-In . SVG Version: 6.00 Build 0)  -->
<svg version="1.1" id="Layer_1" xmlns="http://www.w3.org/2000/svg" xmlns:xlink="http://www.w3.org/1999/xlink" x="0px" y="0px"
	 viewBox="0 0 512 512" style="enable-background:new 0 0 512 512;" xml:space="preserve">
<path style="fill:#73C9C9;" d="M406.588,150.588c-1.52,0-3.02,0.039-4.515,0.113c-2.77,0.201-5.431-0.853-7.421-2.75
	c-1.995-1.897-3.123-4.524-3.123-7.274c0-66.554-56.294-120.598-125.49-120.598c-54.966,0-103.044,33.765-119.642,84.015
	c-1.476,4.466-5.887,7.324-10.515,6.843c-3.417-0.333-6.887-0.505-10.392-0.505c-58.123,0-105.412,47.289-105.412,105.412
	S67.368,321.255,125.49,321.255c1.544,0,3.083-0.029,4.608-0.098c0.627-0.025,1.279-0.005,1.912,0.098h277.985
	c0.348-0.059,0.706-0.098,1.064-0.113c45.343-2.338,80.863-39.77,80.863-85.221C491.922,188.868,453.642,150.588,406.588,150.588z"
	/>
<g>
	<path style="fill:#314E55;" d="M411.25,130.613C405.951,57.731,342.848,0,266.039,0c-60.936,0-114.628,36.029-136.044,90.431
		c-1.495-0.054-2.995-0.078-4.505-0.078C56.294,90.353,0,146.647,0,215.843s56.294,125.49,125.49,125.49
		c1.314,0,2.622-0.02,3.931-0.059c0.358,0.039,0.721,0.059,1.088,0.059h281.098c0.726,0,1.441-0.083,2.132-0.24
		c55.235-3.696,98.26-49.578,98.26-105.172C512,179.358,467.221,133.059,411.25,130.613z M411.059,321.142
		c-0.358,0.015-0.716,0.054-1.064,0.113H132.01c-0.632-0.103-1.284-0.122-1.912-0.098c-1.525,0.069-3.064,0.098-4.608,0.098
		c-58.123,0-105.412-47.289-105.412-105.412S67.368,110.431,125.49,110.431c3.505,0,6.975,0.172,10.392,0.505
		c4.628,0.48,9.039-2.378,10.515-6.843c16.598-50.25,64.676-84.015,119.642-84.015c69.196,0,125.49,54.044,125.49,120.598
		c0,2.75,1.127,5.378,3.122,7.274c1.99,1.897,4.652,2.951,7.422,2.75c1.495-0.074,2.995-0.113,4.515-0.113
		c47.054,0,85.333,38.28,85.333,85.333C491.922,281.373,456.402,318.804,411.059,321.142z"/>
	<path style="fill:#314E55;" d="M428.745,414.549c-3.922-3.922-10.275-3.922-14.196,0l-17.137,17.137h-7.732
		c-3.033-8.505-9.724-15.196-18.228-18.228v-7.732l17.137-17.137c3.922-3.922,3.922-10.275,0-14.196
		c-3.922-3.921-10.275-3.922-14.196,0l-12.981,12.98l-12.98-12.98c-3.922-3.922-10.275-3.922-14.196,0
		c-3.921,3.922-3.922,10.275,0,14.196l17.137,17.137v7.732c-8.505,3.033-15.196,9.724-18.228,18.228h-7.732l-17.137-17.137
		c-3.922-3.922-10.275-3.922-14.196,0c-3.921,3.922-3.922,10.275,0,14.196l12.98,12.981l-12.98,12.98
		c-3.922,3.922-3.922,10.275,0,14.196c1.961,1.961,4.529,2.941,7.098,2.941s5.137-0.98,7.098-2.941l17.137-17.137h7.733
		c3.033,8.505,9.723,15.195,18.228,18.228v7.733l-17.137,17.137c-3.922,3.922-3.922,10.275,0,14.196
		c3.922,3.921,10.275,3.922,14.196,0l12.98-12.98l12.98,12.98c1.961,1.961,4.529,2.941,7.098,2.941s5.137-0.98,7.098-2.941
		c3.922-3.922,3.922-10.275,0-14.196l-17.137-17.137v-7.732c8.505-3.033,15.196-9.724,18.228-18.228h7.732l17.137,17.137
		c1.961,1.961,4.53,2.941,7.098,2.941c2.569,0,5.137-0.98,7.098-2.941c3.922-3.922,3.922-10.275,0-14.196l-12.98-12.98l12.98-12.98
		C432.667,424.823,432.667,418.471,428.745,414.549z M361.412,451.765c-5.534,0-10.039-4.505-10.039-10.039
		c0-5.534,4.505-10.039,10.039-10.039s10.039,4.505,10.039,10.039C371.451,447.26,366.946,451.765,361.412,451.765z"/>
	<path style="fill:#314E55;" d="M162.99,397.078c-4.814-2.779-10.946-1.127-13.716,3.676L97.039,491.23
		c-2.77,4.804-1.127,10.941,3.676,13.716c1.583,0.912,3.309,1.343,5.01,1.343c3.471,0,6.843-1.799,8.706-5.02l52.235-90.475
		C169.436,405.99,167.794,399.853,162.99,397.078z"/>
	<path style="fill:#314E55;" d="M223.225,397.078c-4.824-2.779-10.941-1.127-13.716,3.676l-52.235,90.475
		c-2.77,4.804-1.127,10.941,3.676,13.716c1.583,0.912,3.309,1.343,5.01,1.343c3.471,0,6.843-1.799,8.706-5.02l52.235-90.475
		C229.672,405.99,228.029,399.853,223.225,397.078z"/>
</g>
<g>
</g>
<g>
</g>
<g>
</g>
<g>
</g>
<g>
</g>
<g>
</g>
<g>
</g>
<g>
</g>
<g>
</g>
<g>
</g>
<g>
</g>
<g>
</g>
<g>
</g>
<g>
</g>
<g>
</g>
</svg>
