<?xml version="1.0" encoding="iso-8859-1"?>
<!-- Generator: Adobe Illustrator 19.0.0, SVG Export Plug-In . SVG Version: 6.00 Build 0)  -->
<svg version="1.1" id="Layer_1" xmlns="http://www.w3.org/2000/svg" xmlns:xlink="http://www.w3.org/1999/xlink" x="0px" y="0px"
	 viewBox="0 0 512 512" style="enable-background:new 0 0 512 512;" xml:space="preserve">
<path style="fill:#73C9C9;" d="M406.588,155.608c-1.52,0-3.02,0.039-4.52,0.113c-2.706,0.181-5.422-0.858-7.421-2.75
	c-1.99-1.897-3.118-4.524-3.118-7.274c0-66.554-56.294-120.598-125.49-120.598c-54.961,0-103.049,33.765-119.647,84.015
	c-1.47,4.466-5.892,7.304-10.51,6.843c-3.422-0.333-6.892-0.505-10.392-0.505c-58.128,0-105.412,47.289-105.412,105.412
	S67.363,326.275,125.49,326.275c1.549,0,3.079-0.029,4.608-0.098c0.657-0.01,1.294,0.005,1.912,0.098h277.98
	c0.353-0.059,0.706-0.098,1.059-0.113c45.353-2.338,80.873-39.77,80.873-85.221C491.922,193.887,453.637,155.608,406.588,155.608z"
	/>
<g>
	<path style="fill:#314E55;" d="M411.245,135.632C405.951,62.75,342.843,5.02,266.039,5.02c-60.931,0-114.628,36.029-136.049,90.431
		c-1.49-0.054-2.99-0.078-4.5-0.078C56.294,95.373,0,151.667,0,220.863s56.294,125.49,125.49,125.49c1.314,0,2.628-0.02,3.931-0.059
		c0.363,0.039,0.726,0.059,1.088,0.059h281.098c0.726,0,1.441-0.083,2.137-0.24C468.98,342.412,512,296.529,512,240.941
		C512,184.377,467.216,138.078,411.245,135.632z M411.049,326.162c-0.353,0.015-0.706,0.054-1.059,0.113H132.01
		c-0.618-0.093-1.255-0.108-1.912-0.098c-1.529,0.069-3.059,0.098-4.608,0.098c-58.128,0-105.412-47.289-105.412-105.412
		S67.363,115.451,125.49,115.451c3.5,0,6.97,0.172,10.392,0.505c4.618,0.461,9.039-2.378,10.51-6.843
		c16.598-50.25,64.686-84.015,119.647-84.015c69.196,0,125.49,54.044,125.49,120.598c0,2.75,1.127,5.378,3.118,7.274
		c2,1.892,4.716,2.931,7.421,2.75c1.5-0.074,3-0.113,4.52-0.113c47.049,0,85.333,38.28,85.333,85.333
		C491.922,286.392,456.402,323.823,411.049,326.162z"/>
	<path style="fill:#314E55;" d="M248.039,409.53c-3.922-3.922-10.275-3.922-14.196,0l-17.137,17.137h-7.732
		c-3.033-8.505-9.724-15.196-18.228-18.228v-7.732l17.137-17.137c3.922-3.922,3.922-10.275,0-14.196
		c-3.922-3.921-10.275-3.922-14.196,0l-12.981,12.98l-12.98-12.98c-3.922-3.922-10.275-3.922-14.196,0
		c-3.921,3.922-3.922,10.275,0,14.196l17.137,17.137v7.732c-8.505,3.033-15.196,9.724-18.228,18.228h-7.732l-17.137-17.137
		c-3.922-3.922-10.275-3.922-14.196,0c-3.921,3.922-3.922,10.275,0,14.196l12.98,12.981l-12.98,12.98
		c-3.922,3.922-3.922,10.275,0,14.196c1.961,1.961,4.529,2.941,7.098,2.941c2.569,0,5.137-0.98,7.098-2.941l17.137-17.137h7.733
		c3.033,8.505,9.723,15.195,18.228,18.228v7.733l-17.137,17.137c-3.922,3.922-3.922,10.275,0,14.196
		c3.922,3.921,10.275,3.922,14.196,0l12.98-12.98l12.98,12.98c1.961,1.961,4.529,2.941,7.098,2.941c2.569,0,5.137-0.98,7.098-2.941
		c3.922-3.922,3.922-10.275,0-14.196l-17.137-17.137v-7.732c8.505-3.033,15.196-9.724,18.228-18.228h7.732l17.137,17.137
		c1.961,1.961,4.53,2.941,7.098,2.941c2.569,0,5.137-0.98,7.098-2.941c3.922-3.922,3.922-10.275,0-14.196l-12.98-12.98l12.98-12.98
		C251.961,419.804,251.961,413.451,248.039,409.53z M180.706,446.745c-5.539,0-10.039-4.505-10.039-10.039s4.5-10.039,10.039-10.039
		s10.039,4.505,10.039,10.039S186.245,446.745,180.706,446.745z"/>
	<path style="fill:#314E55;" d="M428.745,409.53c-3.922-3.922-10.275-3.922-14.196,0l-17.137,17.137h-7.732
		c-3.033-8.505-9.724-15.196-18.228-18.228v-7.732l17.137-17.137c3.922-3.922,3.922-10.275,0-14.196
		c-3.922-3.921-10.275-3.922-14.196,0l-12.981,12.98l-12.98-12.98c-3.922-3.922-10.275-3.922-14.196,0
		c-3.921,3.922-3.922,10.275,0,14.196l17.137,17.137v7.732c-8.505,3.033-15.196,9.724-18.228,18.228h-7.732l-17.137-17.137
		c-3.922-3.922-10.275-3.922-14.196,0c-3.921,3.922-3.922,10.275,0,14.196l12.98,12.981l-12.98,12.98
		c-3.922,3.922-3.922,10.275,0,14.196c1.961,1.961,4.529,2.941,7.098,2.941s5.137-0.98,7.098-2.941l17.137-17.137h7.733
		c3.033,8.505,9.723,15.195,18.228,18.228v7.733l-17.137,17.137c-3.922,3.922-3.922,10.275,0,14.196
		c3.922,3.921,10.275,3.922,14.196,0l12.98-12.98l12.98,12.98c1.961,1.961,4.529,2.941,7.098,2.941s5.137-0.98,7.098-2.941
		c3.922-3.922,3.922-10.275,0-14.196l-17.137-17.137v-7.732c8.505-3.033,15.196-9.724,18.228-18.228h7.732l17.137,17.137
		c1.961,1.961,4.53,2.941,7.098,2.941c2.569,0,5.137-0.98,7.098-2.941c3.922-3.922,3.922-10.275,0-14.196l-12.98-12.98l12.98-12.98
		C432.667,419.804,432.667,413.451,428.745,409.53z M361.412,446.745c-5.539,0-10.039-4.505-10.039-10.039s4.5-10.039,10.039-10.039
		c5.539,0,10.039,4.505,10.039,10.039S366.951,446.745,361.412,446.745z"/>
</g>
<g>
</g>
<g>
</g>
<g>
</g>
<g>
</g>
<g>
</g>
<g>
</g>
<g>
</g>
<g>
</g>
<g>
</g>
<g>
</g>
<g>
</g>
<g>
</g>
<g>
</g>
<g>
</g>
<g>
</g>
</svg>
