<?xml version="1.0" encoding="iso-8859-1"?>
<!-- Generator: Adobe Illustrator 19.0.0, SVG Export Plug-In . SVG Version: 6.00 Build 0)  -->
<svg version="1.1" id="Layer_1" xmlns="http://www.w3.org/2000/svg" xmlns:xlink="http://www.w3.org/1999/xlink" x="0px" y="0px"
	 viewBox="0 0 512 512" style="enable-background:new 0 0 512 512;" xml:space="preserve">
<path style="fill:#73C9C9;" d="M181.333,266.667h232.792c0.385-0.068,0.781-0.12,1.177-0.141
	c42.26-2.578,75.365-39.995,75.365-85.193c0-46.25-35.255-84.521-78.594-85.318c-4.687-0.089-8.766-3.224-10.057-7.729
	c-11.281-39.422-49.396-66.953-92.682-66.953c-52.932,0-96,40.672-96,90.667c0,2.635,0.12,5.239,0.354,7.813
	c0.318,3.573-1.172,7.062-3.974,9.297c-2.797,2.234-6.537,2.917-9.948,1.807c-5.953-1.937-12.151-2.917-18.432-2.917
	c-35.292,0-64,31.104-64,69.333S146.042,266.667,181.333,266.667z"/>
<g>
	<path style="fill:#314E55;" d="M181.333,288H416c0.891,0,1.766-0.109,2.609-0.323C471.141,283.38,512,237.078,512,181.333
		c0-55.073-40.542-101.104-91.839-106.198C403.896,30.531,359.411,0,309.333,0c-63.078,0-114.693,47.755-117.234,107.38
		c-3.557-0.474-7.151-0.714-10.766-0.714c-47.052,0-85.333,40.672-85.333,90.667S134.281,288,181.333,288z M181.333,128
		c6.281,0,12.479,0.979,18.432,2.917c3.411,1.109,7.151,0.427,9.948-1.807c2.802-2.234,4.292-5.724,3.974-9.297
		c-0.234-2.573-0.354-5.177-0.354-7.813c0-49.995,43.068-90.667,96-90.667c43.286,0,81.401,27.531,92.682,66.953
		c1.292,4.505,5.37,7.641,10.057,7.729c43.338,0.797,78.594,39.068,78.594,85.318c0,45.198-33.104,82.615-75.365,85.193
		c-0.396,0.021-0.792,0.073-1.177,0.141H181.333c-35.292,0-64-31.104-64-69.333S146.042,128,181.333,128z"/>
	<path style="fill:#314E55;" d="M501.333,320h-448c-0.878,0-1.659,0.299-2.477,0.5c-0.817-0.201-1.598-0.5-2.477-0.5
		c-14.911,0-27.047-14.354-27.047-32s12.135-32,27.047-32c5.891,0,10.667-4.776,10.667-10.667c0-5.891-4.776-10.667-10.667-10.667
		C21.703,234.667,0,258.594,0,288s21.703,53.333,48.38,53.333c0.878,0,1.659-0.299,2.477-0.5c0.817,0.201,1.598,0.5,2.477,0.5h448
		c5.891,0,10.667-4.776,10.667-10.667C512,324.776,507.224,320,501.333,320z"/>
	<path style="fill:#314E55;" d="M437.333,373.333c0-5.891-4.776-10.667-10.667-10.667h-320c-5.891,0-10.667,4.776-10.667,10.667
		S100.776,384,106.667,384h320C432.557,384,437.333,379.224,437.333,373.333z"/>
	<path style="fill:#314E55;" d="M474.361,406.763c-1.519-0.831-3.174-1.43-5.028-1.43h-304c-5.891,0-10.667,4.776-10.667,10.667
		c0,5.891,4.776,10.667,10.667,10.667H463.62c14.911,0,27.047,14.354,27.047,32s-12.135,32-27.047,32
		c-5.891,0-10.667,4.776-10.667,10.667S457.729,512,463.62,512c26.677,0,48.38-23.927,48.38-53.333
		C512,433.342,495.869,412.178,474.361,406.763z"/>
</g>
<g>
</g>
<g>
</g>
<g>
</g>
<g>
</g>
<g>
</g>
<g>
</g>
<g>
</g>
<g>
</g>
<g>
</g>
<g>
</g>
<g>
</g>
<g>
</g>
<g>
</g>
<g>
</g>
<g>
</g>
</svg>
